<?xml version="1.0" encoding="utf-8"?>
<!-- Generator: Adobe Illustrator 16.0.0, SVG Export Plug-In . SVG Version: 6.00 Build 0)  -->
<!DOCTYPE svg PUBLIC "-//W3C//DTD SVG 1.1//EN" "http://www.w3.org/Graphics/SVG/1.1/DTD/svg11.dtd">
<svg version="1.1" id="Layer_1" xmlns="http://www.w3.org/2000/svg" xmlns:xlink="http://www.w3.org/1999/xlink" x="0px" y="0px"
	 width="193px" height="75px" viewBox="0 0 193 75" enable-background="new 0 0 193 75" xml:space="preserve">
<g>
	<g>
		<g>
			<polygon points="122.057,0.953 109.037,0.953 87.968,58.398 102.764,58.398 106.078,47.67 106.081,47.67 109.393,36.976 
				115.547,17.051 120.986,34.548 120.986,34.548 125.881,50.305 125.881,50.305 128.41,58.398 143.286,58.398 			"/>
			<path fill="#AF1717" d="M81.654,0.953H68.635L47.566,58.398h14.795l3.315-10.729h18.977l3.354,10.729h14.875L81.654,0.953z
				 M68.989,36.976l6.156-19.925l6.194,19.925H68.989z"/>
		</g>
	</g>
	<text transform="matrix(1 0 0 1 48.4858 71.1084)" enable-background="new    "><tspan x="0" y="0" fill="#AF1717" font-family="'Roboto-Bold'" font-size="11.6549">AYANDA </tspan><tspan x="49.436" y="0" font-family="'Roboto-Bold'" font-size="11.6549">MABULU</tspan></text>
</g>
</svg>
